<?xml version="1.0" standalone="no"?>
<!DOCTYPE svg PUBLIC "-//W3C//DTD SVG 20010904//EN"
 "http://www.w3.org/TR/2001/REC-SVG-20010904/DTD/svg10.dtd">
<svg version="1.0" xmlns="http://www.w3.org/2000/svg"
 width="512.000000pt" height="512.000000pt" viewBox="0 0 512.000000 512.000000"
 preserveAspectRatio="xMidYMid meet">

<g transform="translate(0.000000,512.000000) scale(0.100000,-0.100000)"
fill="#000000" stroke="none">
<path fill="#fff" d="M1063 5101 c-217 -59 -376 -223 -434 -449 -35 -139 -16 -293 53 -425
42 -81 164 -203 245 -245 133 -70 286 -88 427 -52 114 29 190 73 277 160 185
186 229 446 116 685 -68 143 -197 259 -347 312 -102 35 -236 41 -337 14z m235
-296 c68 -20 151 -97 183 -167 18 -40 23 -71 23 -128 1 -85 -20 -142 -73 -203
-82 -92 -237 -121 -353 -64 -195 96 -224 351 -57 501 79 71 172 92 277 61z"/>
<path fill="#fff" d="M3763 5101 c-85 -23 -118 -39 -200 -98 -152 -107 -252 -305 -253
-499 0 -79 31 -199 72 -277 42 -81 164 -203 245 -245 133 -70 286 -88 427 -52
113 29 190 73 276 160 87 86 131 163 160 276 77 299 -96 617 -390 721 -102 35
-236 41 -337 14z m235 -296 c68 -20 151 -97 183 -167 32 -71 33 -183 3 -249
-31 -66 -78 -114 -142 -146 -47 -23 -70 -28 -132 -28 -174 0 -295 121 -294
295 0 100 28 163 101 230 82 75 174 96 281 65z"/>
<path fill="#fff" d="M1351 3880 c-582 -73 -1013 -555 -1060 -1185 -26 -346 72 -666 307
-1005 200 -287 503 -588 1062 -1055 118 -99 316 -265 440 -369 234 -197 294
-236 399 -256 75 -14 137 -13 206 5 127 33 118 26 593 442 722 631 1065 979
1267 1283 184 279 267 540 267 845 0 448 -181 823 -521 1083 -80 62 -260 147
-370 177 -512 135 -993 -58 -1301 -523 -38 -57 -71 -109 -74 -115 -5 -9 -7 -9
-12 0 -3 6 -36 58 -74 115 -189 286 -447 474 -738 538 -103 23 -288 32 -391
20z m354 -320 c211 -54 392 -197 541 -425 28 -44 61 -99 73 -122 l21 -42 -63
-33 c-92 -48 -205 -164 -251 -258 -66 -135 -82 -276 -46 -414 29 -113 73 -190
160 -276 85 -86 163 -132 271 -159 56 -14 66 -19 48 -24 -13 -4 -37 -7 -52 -7
-87 0 -320 -68 -438 -128 l-77 -39 -158 147 c-247 227 -405 414 -483 570 -34
69 -45 105 -67 218 -4 22 -7 22 -153 22 l-148 0 4 -52 c22 -267 186 -533 545
-884 84 -82 203 -193 264 -246 61 -54 117 -110 125 -124 8 -15 14 -49 14 -75
0 -112 -120 -178 -226 -124 -85 44 -536 485 -680 665 -265 331 -366 612 -338
940 47 537 446 917 940 895 52 -3 131 -14 174 -25z m2135 0 c443 -107 737
-567 689 -1079 -35 -375 -242 -697 -777 -1211 -219 -210 -288 -249 -370 -206
-69 36 -102 124 -72 195 6 16 93 105 193 198 179 167 343 337 445 461 170 207
271 425 285 615 l4 58 -151 -3 -151 -3 -6 -55 c-15 -140 -91 -280 -259 -474
-89 -102 -410 -426 -424 -426 -3 0 -48 20 -99 44 -134 64 -347 126 -434 126
-15 0 -39 3 -52 7 -18 5 -8 10 48 24 108 27 186 73 271 159 87 86 131 163 160
276 36 138 20 279 -46 414 -46 94 -159 210 -251 258 l-63 33 24 47 c52 101
152 240 230 317 136 134 296 218 466 244 89 14 238 5 340 -19z m-1146 -884
c105 -51 160 -144 161 -266 0 -62 -5 -85 -28 -132 -67 -137 -227 -201 -370
-148 -179 67 -250 281 -147 443 80 126 246 170 384 103z m86 -1190 c62 -13
222 -68 247 -84 9 -5 7 -21 -7 -62 -26 -76 -26 -198 0 -283 25 -82 94 -176
160 -219 27 -18 49 -36 47 -40 -6 -19 -527 -463 -562 -479 -48 -22 -94 -24
-140 -5 -29 12 -225 173 -547 447 l-67 58 53 40 c64 48 130 142 153 220 23 74
22 209 -1 274 -10 27 -15 51 -13 53 15 16 216 78 287 89 101 17 293 12 390 -9z"/>
</g>
</svg>
