<?xml version="1.0" encoding="UTF-8"?> <svg xmlns="http://www.w3.org/2000/svg" width="233" height="196" viewBox="0 0 233 196" fill="none"> <path d="M164.048 39C163.368 39 162.709 39.3597 162.36 39.9967C161.851 40.9234 162.192 42.0875 163.123 42.5946C172.446 47.6754 177.3 53.8453 177.157 60.4374C177.004 67.5141 170.826 75.0679 161.415 79.6867C150.392 85.0947 138.339 84.9773 130.706 79.3869C129.891 78.7899 128.75 78.9248 128.098 79.6967C127.446 80.4685 127.509 81.6126 128.238 82.3095C164.489 116.919 167.024 133.393 165.307 140.132C164.126 144.768 160.352 147.986 154.088 149.694C141.418 153.154 121.824 149.869 104.046 142.678C107.007 134.512 107.649 125.512 105.769 116.237C101.847 96.8976 88.8457 88.4994 77.9883 87.0881C69.2271 85.949 61.5667 89.2488 58.4725 95.4887C56.1405 100.192 54.5583 110.414 70.1574 126.024C77.2435 133.115 87.424 139.66 99.1189 144.766C96.2604 150.901 91.8522 156.436 85.9746 161.152C68.6604 175.044 42.8282 178.161 21.6951 168.906C20.7222 168.481 19.5888 168.921 19.1625 169.888C18.7362 170.854 19.1775 171.986 20.1479 172.411C42.5599 182.225 69.9818 178.898 88.3843 164.132C94.7057 159.062 99.4825 152.974 102.592 146.22C105.633 147.444 108.765 148.568 111.955 149.579C128.735 154.9 144.462 156.286 155.104 153.384C162.691 151.313 167.506 147.054 169.03 141.071C172.132 128.886 161.816 110.674 138.349 86.8708C146.927 88.7118 156.149 86.536 163.11 83.1188C173.958 77.7982 180.81 69.1378 180.996 60.5174C181.119 54.8595 178.436 46.5738 164.963 39.2348C164.67 39.0749 164.354 39 164.043 39H164.048ZM100.583 141.211C89.7459 136.45 79.8238 130.263 72.8855 123.318C62.7252 113.152 58.7307 103.625 61.9228 97.1798C64.2773 92.4312 70.3881 89.9607 77.4968 90.88C87.0378 92.119 98.487 99.6303 102.01 116.991C103.755 125.592 103.236 133.782 100.583 141.211Z" fill="#FF9A4C"></path> <path d="M63 20C57.4864 20 53 15.5136 53 10C53 4.48638 57.4864 0 63 0C68.5136 0 73 4.48638 73 10C73 15.5136 68.5136 20 63 20ZM63 3.82904C59.5984 3.82904 56.829 6.59835 56.829 10C56.829 13.4016 59.5984 16.171 63 16.171C66.4017 16.171 69.171 13.4016 69.171 10C69.171 6.59835 66.4017 3.82904 63 3.82904Z" fill="#111111"></path> <path fill-rule="evenodd" clip-rule="evenodd" d="M3 100C4.65341 100 6 98.651 6 97C6 95.349 4.65097 94 3 94C1.34903 94 0 95.349 0 97C0 98.651 1.34903 100 3 100V100Z" fill="#111111"></path> <path d="M182.274 109.275C185.568 108.914 187.945 105.951 187.583 102.657C187.222 99.3631 184.258 96.9855 180.964 97.3464C177.67 97.7074 175.293 100.67 175.655 103.964C176.017 107.258 178.98 109.636 182.274 109.275Z" fill="#111111"></path> <path d="M217 196C208.178 196 201 188.822 201 180C201 171.178 208.178 164 217 164C225.822 164 233 171.178 233 180C233 188.822 225.822 196 217 196ZM217 167.876C210.316 167.876 204.876 173.316 204.876 180C204.876 186.684 210.316 192.124 217 192.124C223.684 192.124 229.124 186.684 229.124 180C229.124 173.316 223.684 167.876 217 167.876Z" fill="#111111"></path> <path fill-rule="evenodd" clip-rule="evenodd" d="M54 161C56.7553 161 59 158.753 59 156C59 153.247 56.7527 151 54 151C51.2473 151 49 153.247 49 156C49 158.753 51.2473 161 54 161Z" fill="#111111"></path> </svg> 