<?xml version="1.0" encoding="UTF-8"?> <svg xmlns="http://www.w3.org/2000/svg" width="184" height="213" viewBox="0 0 184 213" fill="none"> <path d="M142.147 173C138.827 173 134.738 169.919 129.977 163.822C118.845 149.569 100.658 123.22 86.0401 95.8723C74.5621 74.3987 67.2965 56.2121 64.2944 41.4779C55.2347 35.8369 47.8715 34.4797 43.0582 37.9173C32.8393 45.2123 34.8733 75.3402 58.7698 116.811C59.2178 117.59 58.9503 118.582 58.1711 119.03C57.3919 119.477 56.3982 119.21 55.9502 118.432C33.7799 79.9569 27.5632 44.9833 41.1686 35.2729C46.6252 31.3772 54.2984 32.1788 63.5491 37.3214C62.4005 29.914 62.4344 23.4672 63.6616 18.0087C65.4749 9.93968 69.9293 4.06763 76.9019 0.555843C84.781 -3.41187 93.9107 -2.74175 103.319 0.663996C111.486 -16.3351 132.073 -24.9703 164.524 -25C165.422 -25 166.15 -24.2747 166.15 -23.3777C166.15 -22.4807 165.424 -21.7533 164.524 -21.7512C133.578 -21.7215 114.015 -13.7797 106.351 1.8558C120.051 7.61121 134.113 18.6852 145.57 29.2863C161.817 44.3238 178.632 63.8655 191.703 82.9046C197.779 91.754 211.588 113.128 208.576 120.429C208.13 121.509 206.994 122.893 204.102 123.366C191.979 125.351 153.124 109.926 126.013 78.7757C108.215 58.3242 93.5561 26.5994 102.009 3.7368C92.6941 0.41588 84.6918 0.269556 78.3605 3.459C72.2138 6.55514 68.441 11.5471 66.8295 18.7213C65.4876 24.6951 65.7487 31.7653 67.2159 39.5396C75.56 44.9536 85.0209 53.5782 95.191 65.1866C119.245 92.6447 132.156 116.01 138.748 130.776C146.313 147.713 149.509 162.384 147.088 169.062C146.067 171.885 144.271 172.726 142.946 172.936C142.683 172.979 142.415 173 142.143 173H142.147ZM68.1968 44.099C77.8997 84.7644 116.582 141.39 132.542 161.822C137.396 168.038 140.837 169.978 142.44 169.726C142.691 169.685 143.449 169.565 144.033 167.955C145.636 163.529 144.436 151.482 135.78 132.099C129.277 117.539 116.531 94.479 92.7451 67.3263C83.8871 57.213 75.5685 49.3921 68.1968 44.099ZM105.045 4.91164C97.0679 26.5082 111.302 56.914 128.472 76.6444C154.43 106.471 192.388 121.994 203.58 120.162C204.665 119.984 205.391 119.632 205.571 119.195C206.898 115.978 202.297 104.079 189.023 84.7453C176.082 65.897 159.439 46.5525 143.362 31.672C129.234 18.5961 116.268 9.59189 105.047 4.91376L105.045 4.91164Z" fill="#FF1C68"></path> <path d="M163 213C165.761 213 168 210.761 168 208C168 205.239 165.761 203 163 203C160.239 203 158 205.239 158 208C158 210.761 160.239 213 163 213Z" fill="#111111"></path> <path d="M96.5 129C90.1576 129 85 123.84 85 117.5C85 111.16 90.1597 106 96.5 106C102.84 106 108 111.16 108 117.5C108 123.84 102.84 129 96.5 129ZM96.5 109.241C91.9452 109.241 88.241 112.945 88.241 117.5C88.241 122.055 91.9452 125.759 96.5 125.759C101.055 125.759 104.759 122.055 104.759 117.5C104.759 112.945 101.055 109.241 96.5 109.241Z" fill="#111111"></path> <path fill-rule="evenodd" clip-rule="evenodd" d="M2.50103 32C3.87831 32 5 30.8763 5 29.499C5 28.1217 3.87628 27 2.50103 27C1.12578 27 0 28.1237 0 29.499C0 30.8742 1.12375 32 2.50103 32Z" fill="#111111"></path> <path fill-rule="evenodd" clip-rule="evenodd" d="M149 73C151.204 73 153 71.2022 153 69C153 66.7978 151.202 65 149 65C146.798 65 145 66.7978 145 69C145 71.2022 146.798 73 149 73Z" fill="#111111"></path> </svg> 