<?xml version="1.0" standalone="no"?>
<!DOCTYPE svg PUBLIC "-//W3C//DTD SVG 20010904//EN"
 "http://www.w3.org/TR/2001/REC-SVG-20010904/DTD/svg10.dtd">
<svg version="1.0" xmlns="http://www.w3.org/2000/svg"
 width="80px" height="80px" viewBox="0 0 94.000000 94.000000"
 preserveAspectRatio="xMidYMid meet">

<g transform="translate(0.000000,94.000000) scale(0.100000,-0.100000)"
fill="#7949A4" stroke="none">
<path d="M367 870 c-112 -29 -213 -113 -268 -225 -32 -66 -34 -75 -34 -175 0
-97 2 -110 32 -172 41 -86 109 -155 198 -199 66 -32 75 -34 175 -34 97 0 110
2 172 32 223 106 304 377 176 590 -42 70 -96 117 -176 156 -52 24 -79 30 -150
33 -48 2 -104 -1 -125 -6z m279 -55 c27 -14 64 -39 81 -57 30 -32 31 -36 26
-94 l-6 -61 -67 -33 -68 -33 -75 43 c-71 41 -76 46 -82 84 -4 23 -9 55 -11 71
-5 28 -1 33 58 67 35 20 70 37 79 38 8 0 38 -11 65 -25z m-237 -60 c5 -6 12
-39 15 -75 l6 -65 -57 -62 -58 -62 -73 13 c-40 7 -74 15 -76 17 -1 2 -13 30
-25 61 l-23 57 21 34 c11 19 43 55 69 79 l49 46 71 -17 c40 -9 76 -21 81 -26z
m416 -234 l39 -41 -11 -63 c-19 -106 -23 -112 -98 -132 l-66 -18 -41 40 -40
41 7 81 7 82 67 33 c74 38 77 37 136 -23z m-546 -49 c31 -7 36 -13 64 -86 l31
-79 -25 -46 -26 -46 -71 -3 c-70 -3 -70 -3 -97 32 -15 19 -35 57 -45 84 l-19
49 36 57 35 57 42 -6 c23 -4 56 -10 75 -13z m365 -294 c-28 -74 -41 -83 -141
-94 l-52 -7 -45 49 c-60 65 -63 76 -32 128 l26 44 92 14 93 15 43 -41 42 -41
-26 -67z"/>
</g>
</svg>
