<svg xmlns="http://www.w3.org/2000/svg" width="136" height="70" viewBox="0 0 136 70" fill="none"> 
<path d="M52.8403 18.4091C53.1406 18.5174 53.4324 18.6585 53.7127 18.8315C55.579 19.9865 58.4159 23.5952 56.4595 34.7832C55.9049 37.9554 54.7229 40.5189 52.9748 42.3896C55.4919 44.2876 58.4908 45.7725 61.7362 46.6369C70.6779 49.0172 79.7786 46.3222 86.7037 39.2386C87.1587 38.7733 87.9024 38.7651 88.3665 39.2202C88.8307 39.6752 88.8374 40.4214 88.383 40.8852C80.848 48.5924 70.9136 51.5181 61.129 48.914C57.4204 47.9268 53.9986 46.1848 51.1568 43.9474C50.4089 44.4558 49.5914 44.8721 48.7089 45.1931C42.1847 47.5665 33.2715 44.4642 26.1085 39.8386C23.3589 45.062 18.6002 47.4491 12.8364 46.3061C6.7333 45.0947 0.413991 40.1112 -4.0642 32.9718C-9.11326 24.922 -11.2893 15.0312 -10.1896 5.11996C-10.1177 4.47244 -9.53554 4.00724 -8.89043 4.078C-8.24387 4.14928 -7.77997 4.73171 -7.85136 5.37779C-10.1669 26.247 2.90571 41.9347 13.2958 43.9953C18.1492 44.9572 21.922 43.0237 24.1586 38.5128C23.1317 37.7764 22.1546 37.0155 21.2394 36.2409C14.9785 30.9417 11.7061 25.2325 12.4859 20.9695C13.2044 17.044 15.2909 14.2573 18.2109 13.3224C20.6625 12.5373 23.3414 13.2531 25.3785 15.238C27.3141 17.1241 31.4007 22.9373 27.5715 36.1471C27.4212 36.6683 27.2548 37.1706 27.0747 37.6565C33.9033 42.1371 42.2577 45.0331 47.9032 42.9787C48.3938 42.7992 48.8576 42.5856 49.2935 42.3357C46.4671 39.6347 44.4221 36.4047 43.5385 32.9902C41.9599 26.8913 44.4973 21.7091 47.5219 19.4748C49.2657 18.1861 51.1878 17.8149 52.834 18.4084L52.8403 18.4091ZM51.1707 40.881C52.6604 39.3422 53.6546 37.1686 54.1429 34.3795C55.9742 23.9049 53.3279 21.3653 52.4741 20.8368C51.0871 19.9772 49.53 20.9245 48.9235 21.3711C46.5153 23.1493 44.5178 27.3591 45.8225 32.3981C46.6251 35.499 48.5307 38.4368 51.1702 40.8824L51.1707 40.881ZM25.0778 36.2664C25.1617 36.0155 25.2419 35.7568 25.3169 35.4945C28.8875 23.1738 25.0134 18.1696 23.7407 16.9294C22.3158 15.5412 20.5629 15.0449 18.9288 15.5673C16.8645 16.2288 15.3603 18.3508 14.8035 21.3931C14.1866 24.7652 17.2353 29.7644 22.7623 34.4427C23.4986 35.0661 24.2727 35.6754 25.0772 36.2679L25.0778 36.2664Z" fill="#7B48A3"/>
 <path d="M128.5 14C132.635 14 136 17.3648 136 21.5C136 25.6352 132.635 29 128.5 29C124.365 29 121 25.6352 121 21.5C121 17.3648 124.365 14 128.5 14ZM128.5 26.1282C131.051 26.1282 133.128 24.0512 133.128 21.5C133.128 18.9488 131.051 16.8718 128.5 16.8718C125.949 16.8718 123.872 18.9488 123.872 21.5C123.872 24.0512 125.949 26.1282 128.5 26.1282Z" fill="#111111"/> <path fill-rule="evenodd" clip-rule="evenodd" d="M78.501 14C77.1237 14 76 15.1237 76 16.499C76 17.8742 77.1237 19 78.501 19C79.8783 19 81 17.8763 81 16.499C81 15.1217 79.8763 14 78.501 14Z" fill="#111111"/>
  </svg>