<svg xmlns="http://www.w3.org/2000/svg" width="131" height="115" viewBox="0 0 131 115" fill="none"> <path d="M35.5273 49C37.292 49 39.4652 50.6496 41.9949 53.9135C47.9107 61.5438 57.5759 75.6499 65.3444 90.2906C71.4441 101.787 75.3053 111.523 76.9007 119.411C81.7153 122.431 85.6283 123.157 88.1862 121.317C93.6168 117.412 92.5359 101.282 79.8366 79.0807C79.5985 78.6641 79.7407 78.1327 80.1548 77.8932C80.5689 77.6536 81.0969 77.7967 81.335 78.2133C93.117 98.811 96.4207 117.534 89.1904 122.733C86.2906 124.818 82.2129 124.389 77.2968 121.636C77.9072 125.602 77.8891 129.053 77.237 131.975C76.2734 136.295 73.9061 139.439 70.2007 141.319C66.0135 143.443 61.1617 143.084 56.1621 141.261C51.8215 150.361 40.8812 154.984 23.6359 155C23.1587 155 22.7717 154.612 22.7717 154.132C22.7717 153.651 23.1575 153.262 23.6359 153.261C40.0813 153.245 50.4776 148.993 54.5509 140.623C47.2698 137.541 39.7969 131.613 33.7085 125.938C25.0746 117.887 16.1382 107.426 9.19228 97.2329C5.96302 92.4953 -1.3756 81.0527 0.225494 77.1439C0.462448 76.566 1.06611 75.8247 2.60288 75.5715C9.04561 74.5089 29.6939 82.767 44.1015 99.4433C53.5602 110.392 61.3502 127.376 56.8583 139.616C61.8083 141.394 66.0609 141.472 69.4256 139.764C72.6921 138.107 74.6971 135.434 75.5535 131.594C76.2666 128.396 76.1278 124.61 75.3481 120.449C70.9138 117.55 65.886 112.933 60.4813 106.718C47.6986 92.0185 40.8372 79.5098 37.3338 71.6048C33.3136 62.5372 31.6155 54.6833 32.9017 51.1082C33.4445 49.5972 34.399 49.1464 35.1031 49.0341C35.243 49.0113 35.3852 49 35.5296 49H35.5273ZM74.8269 118.008C69.6704 96.2373 49.1135 65.9227 40.6319 54.9841C38.0525 51.6566 36.2235 50.6178 35.3716 50.7529C35.2385 50.7745 34.8357 50.8392 34.5254 51.7009C33.6735 54.0702 34.311 60.5198 38.9112 70.8964C42.3672 78.6913 49.1406 91.0365 61.7812 105.573C66.4885 110.987 70.9093 115.174 74.8269 118.008ZM55.2448 138.987C59.4839 127.425 51.9196 111.147 42.7949 100.584C29 84.6164 8.82784 76.3061 2.88045 77.2869C2.30387 77.3823 1.91797 77.5708 1.82207 77.8046C1.11686 79.5269 3.56196 85.897 10.6162 96.2475C17.4934 106.338 26.3383 116.694 34.882 124.66C42.3898 131.661 49.2805 136.481 55.2437 138.986L55.2448 138.987Z" fill="#FF1C68"/> <path d="M18.5 0C25.3939 0 31 5.60844 31 12.5C31 19.3916 25.3916 25 18.5 25C11.6085 25 6 19.3916 6 12.5C6 5.60844 11.6085 0 18.5 0ZM18.5 21.4772C23.4508 21.4772 27.4772 17.4508 27.4772 12.5C27.4772 7.54921 23.4508 3.52281 18.5 3.52281C13.5492 3.52281 9.52283 7.54921 9.52283 12.5C9.52283 17.4508 13.5492 21.4772 18.5 21.4772Z" fill="#111111"/> <path fill-rule="evenodd" clip-rule="evenodd" d="M127.499 98C125.57 98 124 99.5732 124 101.501C124 103.43 125.573 105 127.499 105C129.424 105 131 103.427 131 101.501C131 99.5761 129.427 98 127.499 98Z" fill="#111111"/> <path fill-rule="evenodd" clip-rule="evenodd" d="M33.5 103C32.1223 103 31 104.124 31 105.5C31 106.876 32.1236 108 33.5 108C34.8764 108 36 106.876 36 105.5C36 104.124 34.8764 103 33.5 103Z" fill="#111111"/> </svg>