<svg xmlns="http://www.w3.org/2000/svg" viewBox="0 0 37.9716796875 37.9715576171875" fill="none"> <path d="M20.01602150621916 0.01369968240388569C14.981101686497738 -0.2595963859477796 10.67801104864823 3.6004147126850325 10.404714880371094 8.63530955103824C10.38255640676398 9.04353008904708 10.033641636898642 9.356521651418586 9.625421098889802 9.334363177811472C4.590551241904811 9.061067009534332 0.2874306264134457 12.921038137978002 0.01413233472000925 17.95595795769942C-0.25916420827765213 22.990877777420845 3.6008643773129108 27.29414328484786 8.635734234297903 27.567439453125C9.043954772306744 27.589423057154605 9.356946334678248 27.93841277112459 9.334787861071133 28.346358514083057C9.061491692793997 33.38135327790913 12.92148780260588 37.684643766704355 17.956382640959085 37.957939934981496C22.991302460680508 38.23123610325863 27.294393098530016 34.37111508660567 27.567689266807154 29.336120322779603C27.58992268451891 28.92792476613898 27.938662584806742 28.615158036081414 28.346858141447367 28.637141640111018C33.38185290527344 28.910437808388156 37.684893580386515 25.05056660541735 37.95818974866365 20.0155968229595C38.231485916940784 14.980677003238075 34.37161471396998 10.677586365388567 29.336619950143913 10.40429019711143C28.92842439350329 10.382131723504317 28.615407849763567 10.033216953638979 28.637641267475328 9.62499641563014C28.910937435752466 4.590126558645148 25.050816419099508 0.28699595060649674 20.01602150621916 0.01369968240388569Z" fill="#FFB715"></path> </svg>