<svg xmlns="http://www.w3.org/2000/svg" viewBox="0 0 42.5986328125 42.59814453125" fill="none"> <path d="M17.82560964798063 0.590272564190424C17.81145992667215 -0.09393372207373904 18.78808963473136 -0.23043493760850695 18.96209633075201 0.4314269956140351L20.421186694764252 5.983937070540936C22.305266927654422 13.153735379545871 28.856961565698096 18.09846510131122 36.26837633063779 17.94453705911915L42.00823070860746 17.825310710206505C42.692549096536915 17.811160988898028 42.829064013386336 18.787790696957238 42.166916843704314 18.961797392977886L36.61439680418494 20.42088775699013C29.444872521472952 22.3049679898803 24.500018242301717 28.85646333607456 24.653971195974965 36.26812721582602L24.773172633406432 42.007981593795684C24.787322354714913 42.69205086691338 23.81071755813688 42.82856578376279 23.636710862116228 42.16666772889254L22.177620498103984 36.614147689373176C20.293540265213814 29.444374291849414 13.741970184576024 24.499719304527595 6.330356127786915 24.653672258200842L0.5905739931126646 24.77289860711349C-0.09363104757743969 24.78702341694079 -0.23013226311220758 23.810418620362757 0.4317309156843933 23.636411924342106L5.984236008315058 22.17732156032986C13.154034317319994 20.29324132743969 18.098764039085342 13.7416712468019 17.944835996893275 6.330057190012792L17.82560964798063 0.590272564190424Z" fill="#36B872"></path> </svg>