<svg xmlns="http://www.w3.org/2000/svg" viewBox="0 0 40.9921875 42.3973388671875" fill="none"> <path d="M2.265500729325457 35.354012052210365C3.1075077553353654 36.40456183307926 4.224944788490853 37.101928925304875 5.432989553163109 37.42561723513719C7.251093049733231 37.912774390243904 9.270783126905489 37.552343083079265 10.849182307545732 36.28058546112805C10.853381507240853 36.278085937499995 10.857455730754573 36.27533646150914 10.861404978086888 36.27258698551829C10.865179258765243 36.269587557164634 10.868953539443597 36.26658812881097 10.87257784870427 36.26358870045731L10.878126791158536 36.25883960556402C10.88195106230945 36.25584017721036 10.885600366806402 36.252590796493905 10.889199680830792 36.249591368140244L16.49733085461128 31.664215272484753L19.0614921636814 38.43942401867378C19.06384171589177 38.44667263719512 19.066766158536584 38.45242154153963 19.069340667873472 38.45867035060976C19.0705904296875 38.46166977896341 19.07169022008384 38.46466920731707 19.07284000095274 38.467918588033534C20.287433517530488 41.63381521532012 23.829208508003045 43.20851510099085 26.979858041158536 41.97949933307926C30.133257050304877 40.7514833746189 31.724703744283534 37.16941606326219 30.5391796875 33.98927215129573L30.536930116234757 33.98127367568597C30.534930497332315 33.97477491425305 30.533180830792684 33.96977586699695 30.530181402439023 33.96427691501525L27.975668254573172 27.18856826410061L35.16404825647866 26.784645245807926C38.540654725609755 26.595181354801827 41.15365672637195 23.665664677019816 40.984688929115855 20.256989319740853C40.815971084222554 16.848513924352133 37.932270674542686 14.227263495617377 34.55341463414634 14.413078082126523L27.367534155868903 14.80795282488567L29.247675828887196 7.779567330411584C30.12875790777439 4.478996370045731 28.192376953125 1.081486384813262 24.92942382336128 0.20718751314786585C21.66649568883384 -0.6671103587080792 18.290864033917682 1.307080889862805 17.402933260289632 4.608996593940549L15.515592959222559 11.62903367949695L9.48976639195884 7.694083622332316C9.487166887385671 7.693383755716463 9.48411746855945 7.6919340320121945 9.481168030678353 7.69015937023628C9.477318764291159 7.687934794207317 9.473494493140244 7.6850853372713415 9.470620040967987 7.682535823170731C6.640084498856707 5.845785880335366 2.8439079935213414 6.677102443788109 0.9979423070693597 9.539506912157012C-0.8480058827172255 12.40173641387195 -0.05851209846608231 16.230081788300303 2.7537501762576215 18.087602772484754C2.756374676067073 18.08925245807927 2.7586492425685973 18.0910021246189 2.760823828125 18.092701800685976L2.77057197027439 18.099850438262195L2.775046117568597 18.102949847560975L8.79549870903201 22.045948370807924L3.1954160013338413 26.636673447027437C3.193141434832317 26.63942292301829 3.1901420064786583 26.641672494283537 3.1871175828887193 26.644172017911583C3.1840931592987802 26.64642158917683 3.181093730945122 26.648921112804878 3.1787941692073165 26.651420636432928C0.5592409170160061 28.812258812881097 0.1485301923589939 32.71376524390244 2.265500729325457 35.354012052210365Z" fill="#7B48A3"></path> </svg>