<svg xmlns="http://www.w3.org/2000/svg" viewBox="0 0 50 50" fill="none"> <path d="M25 0L26.86825 12.7106L32.3895 1.1169225L30.43875 13.81505L39.1225 4.368425L33.52625 15.9258L44.60075 9.465625L35.85575 18.8553L48.33725 15.9556L37.221 22.3433L50 23.261575L37.5 26.07975L49.4415 30.7345L36.6685 29.733L46.71125 37.7105L34.8005 32.978L42.052 43.56975L32.06125 35.5265L35.8775 47.79125L28.69475 37.15225L28.7365 50L25 37.7105L21.263475 50L21.305275 37.15225L14.122525 47.79125L17.9388 35.5265L7.948025 43.56975L15.199725 32.978L3.288675 37.7105L13.331475 29.733L0.5584525 30.7345L12.500025 26.07975L0 23.261575L12.77925 22.3433L1.662895 15.9556L14.14435 18.8553L5.399425 9.465625L16.473975 15.9258L10.877525 4.368425L19.5613 13.81505L17.610475 1.1169225L23.13185 12.7106L25 0Z" fill="white"></path> </svg>