<svg viewBox="0 0 52.5 55.5" fill="none" xmlns="http://www.w3.org/2000/svg"><path d="M27.80825 29.28075C27.859 29.85125 26.79875 30.16375 26.24925 29.28075C25.65525 28.50075 26.092 26.68925 27.80825 26.1665C29.425 25.54725 31.98325 26.73575 32.486 29.28075C33.1265 31.728 31.19225 35.02925 27.80825 35.51C24.529725 36.1715 20.4669 33.49275 20.012425 29.28075C19.323525 25.1715 22.762625 20.370375 27.80825 19.937175C32.75625 19.2283 38.311 23.405675 38.72275 29.28075C39.4555 35.053 34.52325 41.3535 27.80825 41.739C21.19255 42.49525 14.141025 36.818 13.775725 29.28075C12.9976 21.84155 19.42545 14.050225 27.80825 13.70815C36.0855 12.90925 44.64275 20.076525 44.9595 29.28075C45.785 38.38225 37.8555 47.6735 27.80825 47.968C17.8622 48.8145 7.812175 40.148 7.53895 29.28075C6.67075 18.51645 16.092325 7.727225 27.80825 7.479075C39.41975 6.58525 50.9705 16.751475 51.19625 29.28075C52.113 41.71225 41.18875 53.9925 27.80825 54.19725C14.533025 55.1345 1.4803825 43.477 1.3021975 29.28075C0.34194 15.1873 12.761 1.407205 27.80825 1.25" stroke="white" stroke-width="2.5" stroke-linecap="round"></path></svg>