<svg viewBox="0 0 50 50" fill="none" xmlns="http://www.w3.org/2000/svg"><path fill-rule="evenodd" clip-rule="evenodd" d="M49.99825 24.99815C49.99825 24.99815 50.29475 13.51065 43.392 6.608C36.48925 -0.2945125 25.00175 0.0018534025 25.00175 0.0018534025C25.00175 0.0018534025 25.00025 0.06102025 25 0.1733815C25 0.12592775 24.999525 0.0879645 24.9993 0.05993225C24.99885 0.021598825 24.99815 0.0018534025 24.99815 0.0018534025C24.99815 0.0018534025 13.51065 -0.2945125 6.608 6.608C-0.2945125 13.51065 0.0018534025 24.99815 0.0018534025 24.99815C0.0018534025 24.99815 11.489475 25.2945 18.3919 18.3919C24.70115 12.0829 24.996075 1.9433125 25 0.2463905C25.00425 1.9433125 25.299 12.0829 31.608 18.3919C38.51075 25.2945 49.99825 24.99815 49.99825 24.99815ZM6.608 43.392C-0.2945125 36.48925 0.0018534025 25.00175 0.0018534025 25.00175C0.0018534025 25.00175 11.489475 24.70555 18.3919 31.608C24.70115 37.91725 24.996075 48.05675 25 49.75375C25.00425 48.05675 25.299 37.91725 31.608 31.608C38.51075 24.70555 49.99825 25.00175 49.99825 25.00175C49.99825 25.00175 50.29475 36.48925 43.392 43.392C36.48925 50.2945 25.00175 49.99825 25.00175 49.99825C25.00175 49.99825 25.00025 49.939 25 49.8265C24.999775 49.939 24.99815 49.99825 24.99815 49.99825C24.99815 49.99825 13.51065 50.2945 6.608 43.392Z" fill="white"></path></svg>