<svg xmlns="http://www.w3.org/2000/svg" xmlns:xlink="http://www.w3.org/1999/xlink" version="1.1" width="80px" height="80px" style="shape-rendering:geometricPrecision; text-rendering:geometricPrecision; image-rendering:optimizeQuality; fill-rule:evenodd; clip-rule:evenodd">
<g><path style="opacity:0.923" fill="#36b772" d="M 3.5,-0.5 C 6.83333,-0.5 10.1667,-0.5 13.5,-0.5C 16.4323,0.799728 18.7656,2.79973 20.5,5.5C 20.1765,12.0221 20.5098,18.3554 21.5,24.5C 21.3284,25.4916 21.6618,26.1583 22.5,26.5C 23.5274,28.1942 24.8608,29.5275 26.5,30.5C 25.5,30.5 24.5,30.5 23.5,30.5C 22.9935,34.0071 23.6602,37.1737 25.5,40C 24.5842,40.2784 23.9175,40.7784 23.5,41.5C 22.8333,41.5 22.1667,41.5 21.5,41.5C 18.2382,39.5797 15.2382,37.2463 12.5,34.5C 12.0679,33.2905 11.4013,32.2905 10.5,31.5C 10.6716,30.5084 10.3382,29.8417 9.5,29.5C 9.67158,28.5084 9.33825,27.8417 8.5,27.5C 8.76781,25.901 8.43448,24.5676 7.5,23.5C 7.5,20.8333 7.5,18.1667 7.5,15.5C 8.83333,12.5 8.83333,9.5 7.5,6.5C 6.85493,5.18819 5.85493,4.18819 4.5,3.5C 3.57131,2.31116 3.23798,0.977822 3.5,-0.5 Z"/></g>
<g><path style="opacity:0.004" fill="#3db371" d="M 16.5,-0.5 C 16.8333,-0.5 17.1667,-0.5 17.5,-0.5C 17.3147,0.170143 16.9813,0.170143 16.5,-0.5 Z"/></g>
<g><path style="opacity:0.013" fill="#37b773" d="M 32.5,-0.5 C 34.8333,-0.5 37.1667,-0.5 39.5,-0.5C 37.1667,0.833333 34.8333,0.833333 32.5,-0.5 Z"/></g>
<g><path style="opacity:0.932" fill="#35b772" d="M 42.5,9.5 C 40.7517,15.5737 40.085,21.907 40.5,28.5C 39.2241,29.3864 39.2241,30.3864 40.5,31.5C 42.3964,30.7255 44.063,29.7255 45.5,28.5C 48.075,26.1547 49.075,23.1547 48.5,19.5C 49.2224,15.6092 50.0557,11.6092 51,7.5C 52.3968,5.92975 53.8968,4.59641 55.5,3.5C 59.5,3.5 63.5,3.5 67.5,3.5C 67.5,5.16667 67.5,6.83333 67.5,8.5C 64.6333,8.36922 62.9666,9.70256 62.5,12.5C 61.5184,15.9619 61.185,19.6286 61.5,23.5C 60.5655,24.5676 60.2322,25.901 60.5,27.5C 59.596,28.209 59.2627,29.209 59.5,30.5C 58.5987,31.2905 57.9321,32.2905 57.5,33.5C 54.4242,37.2069 50.7576,40.2069 46.5,42.5C 45.209,42.2627 44.209,42.596 43.5,43.5C 42.5,43.5 41.5,43.5 40.5,43.5C 40.3263,51.4728 39.8263,51.4728 39,43.5C 38.7392,47.706 38.2392,51.8726 37.5,56C 37.5699,56.7648 37.9033,57.2648 38.5,57.5C 39.2543,60.091 40.921,61.9243 43.5,63C 42.6634,64.0113 42.33,65.1779 42.5,66.5C 38.5,66.1667 34.5,65.8333 30.5,65.5C 29.8783,64.3734 29.045,63.3734 28,62.5C 27.5002,51.8385 27.3335,41.1719 27.5,30.5C 27.5,28.8333 27.5,27.1667 27.5,25.5C 28.2405,20.8137 28.9072,15.9804 29.5,11C 29.4301,10.2352 29.0967,9.7352 28.5,9.5C 27.7457,6.90902 26.079,5.07568 23.5,4C 24.3366,2.98873 24.67,1.82207 24.5,0.5C 32.1886,1.02523 39.8553,1.6919 47.5,2.5C 47.762,3.97782 47.4287,5.31116 46.5,6.5C 44.739,7.03514 43.4057,8.03514 42.5,9.5 Z"/></g>
<g><path style="opacity:0.004" fill="#3fb079" d="M 46.5,0.5 C 47.8333,1.16667 47.8333,1.16667 46.5,0.5 Z"/></g>
<g><path style="opacity:0.016" fill="#46ae78" d="M 1.5,0.5 C 2.57346,1.25057 2.74012,2.25057 2,3.5C 1.51722,2.55198 1.35055,1.55198 1.5,0.5 Z"/></g>
<g><path style="opacity:0.016" fill="#37b571" d="M 22.5,0.5 C 23.525,0.896566 23.6917,1.56323 23,2.5C 22.5357,1.90558 22.369,1.23891 22.5,0.5 Z"/></g>
<g><path style="opacity:0.013" fill="#49ac74" d="M 56.5,2.5 C 59.6399,1.35916 62.9733,1.1925 66.5,2C 63.1832,2.49834 59.8499,2.66501 56.5,2.5 Z"/></g>
<g><path style="opacity:0.008" fill="#33b676" d="M 55.5,3.5 C 54.7611,3.63101 54.0944,3.46434 53.5,3C 54.4368,2.30831 55.1034,2.47498 55.5,3.5 Z"/></g>
<g><path style="opacity:0.008" fill="#42b274" d="M 3.5,4.5 C 4.83333,5.16667 4.83333,5.16667 3.5,4.5 Z"/></g>
<g><path style="opacity:0.016" fill="#38b66f" d="M 20.5,4.5 C 21.8333,5.16667 21.8333,5.16667 20.5,4.5 Z"/></g>
<g><path style="opacity:0.022" fill="#36b872" d="M 21.5,7.5 C 22.6225,9.28841 22.7891,11.2884 22,13.5C 21.5045,11.5273 21.3379,9.5273 21.5,7.5 Z"/></g>
<g><path style="opacity:0.008" fill="#36b870" d="M 48.5,8.5 C 49.8333,9.16667 49.8333,9.16667 48.5,8.5 Z"/></g>
<g><path style="opacity:0.024" fill="#37b677" d="M 7.5,6.5 C 7.5,9.5 7.5,12.5 7.5,15.5C 6.16667,12.5 6.16667,9.5 7.5,6.5 Z"/></g>
<g><path style="opacity:0.008" fill="#3bb374" d="M 28.5,9.5 C 28.631,10.2389 28.4643,10.9056 28,11.5C 27.3083,10.5632 27.475,9.89657 28.5,9.5 Z"/></g>
<g><path style="opacity:0.004" fill="#39b370" d="M 42.5,9.5 C 43.8333,10.1667 43.8333,10.1667 42.5,9.5 Z"/></g>
<g><path style="opacity:0.024" fill="#40b178" d="M 62.5,12.5 C 63.6129,13.9464 63.7796,15.6131 63,17.5C 62.5065,15.8659 62.3398,14.1992 62.5,12.5 Z"/></g>
<g><path style="opacity:0.014" fill="#3eb373" d="M 48.5,19.5 C 47.3775,17.7116 47.2109,15.7116 48,13.5C 48.4955,15.4727 48.6621,17.4727 48.5,19.5 Z"/></g>
<g><path style="opacity:0.009" fill="#35b870" d="M 41.5,15.5 C 42.6225,17.2884 42.7891,19.2884 42,21.5C 41.5045,19.5273 41.3379,17.5273 41.5,15.5 Z"/></g>
<g><path style="opacity:0.007" fill="#38b771" d="M 27.5,25.5 C 26.3659,23.0336 26.1993,20.367 27,17.5C 27.4974,20.146 27.6641,22.8127 27.5,25.5 Z"/></g>
<g><path style="opacity:0.027" fill="#36b872" d="M 21.5,23.5 C 22.8333,24.1667 22.8333,24.1667 21.5,23.5 Z"/></g>
<g><path style="opacity:0.012" fill="#36b874" d="M 46.5,23.5 C 47.8333,24.1667 47.8333,24.1667 46.5,23.5 Z"/></g>
<g><path style="opacity:0.017" fill="#33b973" d="M 61.5,23.5 C 62.5735,24.2506 62.7401,25.2506 62,26.5C 61.5172,25.552 61.3505,24.552 61.5,23.5 Z"/></g>
<g><path style="opacity:0.031" fill="#39b677" d="M 7.5,23.5 C 7.63101,24.2389 7.46434,24.9056 7,25.5C 6.30831,24.5632 6.47498,23.8966 7.5,23.5 Z"/></g>
<g><path style="opacity:0.016" fill="#3ab672" d="M 22.5,25.5 C 23.8333,26.1667 23.8333,26.1667 22.5,25.5 Z"/></g>
<g><path style="opacity:0.024" fill="#3eb376" d="M 8.5,27.5 C 7.83333,28.1667 7.83333,28.1667 8.5,27.5 Z"/></g>
<g><path style="opacity:0.004" fill="#38b676" d="M 45.5,28.5 C 44.8333,27.1667 44.8333,27.1667 45.5,28.5 Z"/></g>
<g><path style="opacity:0.012" fill="#33ba6e" d="M 40.5,28.5 C 41.8333,29.1667 41.8333,29.1667 40.5,28.5 Z"/></g>
<g><path style="opacity:0.02" fill="#44af7a" d="M 60.5,27.5 C 61.525,27.8966 61.6917,28.5632 61,29.5C 60.5357,28.9056 60.369,28.2389 60.5,27.5 Z"/></g>
<g><path style="opacity:0.008" fill="#36b778" d="M 9.5,29.5 C 8.83333,30.1667 8.83333,30.1667 9.5,29.5 Z"/></g>
<g><path style="opacity:0.02" fill="#36b874" d="M 59.5,30.5 C 60.8333,31.1667 60.8333,31.1667 59.5,30.5 Z"/></g>
<g><path style="opacity:0.012" fill="#38b678" d="M 10.5,31.5 C 9.83333,32.1667 9.83333,32.1667 10.5,31.5 Z"/></g>
<g><path style="opacity:0.012" fill="#2dbd70" d="M 57.5,33.5 C 58.8333,34.1667 58.8333,34.1667 57.5,33.5 Z"/></g>
<g><path style="opacity:0.004" fill="#38b678" d="M 12.5,34.5 C 11.8333,35.1667 11.8333,35.1667 12.5,34.5 Z"/></g>
<g><path style="opacity:0.004" fill="#3ab578" d="M 21.5,41.5 C 20.8333,42.1667 20.8333,42.1667 21.5,41.5 Z"/></g>
<g><path style="opacity:0.008" fill="#40b477" d="M 23.5,42.5 C 22.8333,43.1667 22.8333,43.1667 23.5,42.5 Z"/></g>
<g><path style="opacity:0.008" fill="#4aad7a" d="M 46.5,42.5 C 47.8333,43.1667 47.8333,43.1667 46.5,42.5 Z"/></g>
<g><path style="opacity:0.84" fill="#38b573" d="M 26.5,30.5 C 26.8333,30.5 27.1667,30.5 27.5,30.5C 27.3335,41.1719 27.5002,51.8385 28,62.5C 29.045,63.3734 29.8783,64.3734 30.5,65.5C 26.7852,65.577 23.1185,65.2436 19.5,64.5C 19.238,63.0222 19.5713,61.6888 20.5,60.5C 22.261,59.9649 23.5943,58.9649 24.5,57.5C 26.1446,52.7664 26.8112,47.7664 26.5,42.5C 25.5,42.5 24.5,42.5 23.5,42.5C 23.5,42.1667 23.5,41.8333 23.5,41.5C 23.9175,40.7784 24.5842,40.2784 25.5,40C 23.6602,37.1737 22.9935,34.0071 23.5,30.5C 24.5,30.5 25.5,30.5 26.5,30.5 Z"/></g>
<g><path style="opacity:0.004" fill="#37b476" d="M 43.5,43.5 C 44.2389,43.369 44.9056,43.5357 45.5,44C 44.5632,44.6917 43.8966,44.525 43.5,43.5 Z"/></g>
<g><path style="opacity:0.01" fill="#38b472" d="M 24.5,45.5 C 25.6225,47.2884 25.7891,49.2884 25,51.5C 24.5045,49.5273 24.3379,47.5273 24.5,45.5 Z"/></g>
<g><path style="opacity:0.008" fill="#3bb672" d="M 38.5,57.5 C 38.369,56.7611 38.5357,56.0944 39,55.5C 39.6917,56.4368 39.525,57.1034 38.5,57.5 Z"/></g>
<g><path style="opacity:0.004" fill="#3db273" d="M 24.5,57.5 C 23.8333,56.1667 23.8333,56.1667 24.5,57.5 Z"/></g>
<g><path style="opacity:0.016" fill="#35b76f" d="M 43.5,64.5 C 44.525,64.8966 44.6917,65.5632 44,66.5C 43.5357,65.9056 43.369,65.2389 43.5,64.5 Z"/></g>
<g><path style="opacity:0.004" fill="#40b173" d="M 19.5,65.5 C 20.8333,66.1667 20.8333,66.1667 19.5,65.5 Z"/></g>
<g><path style="opacity:0.02" fill="#38b672" d="M 27.5,67.5 C 29.8333,66.1667 32.1667,66.1667 34.5,67.5C 32.1667,67.5 29.8333,67.5 27.5,67.5 Z"/></g>
</svg>