<svg xmlns="http://www.w3.org/2000/svg" viewBox="0 0 39.5595703125 39.0499267578125" fill="none"> <path fill-rule="evenodd" clip-rule="evenodd" d="M16.81893792010613 0.12622612958800117C20.762852918632078 -0.6079460029112619 24.544474157945164 1.9369485235480544 25.26562770857901 5.810380310288916C25.98665685804835 9.683809609006486 23.374008481353187 13.418979453493515 19.43009348282724 14.153145365934552C15.4862033645342 14.887336158608491 11.704582125221108 12.342461536335495 10.983528095518869 8.469032237617926C10.262474065816628 4.595602938900354 12.875022921580188 0.8603982620872641 16.81893792010613 0.12622612958800117ZM11.593989489976416 38.365319133254715C7.979513655291863 36.68242017983491 6.455723791273585 32.42814915610259 8.190522910524765 28.862811781397408C9.925322029775945 25.29772320902123 14.26174758254717 23.771719004274765 17.876273177697524 25.45446867629717C21.49074901238208 27.137367629716984 23.014489115934552 31.391638653449295 21.279789517614976 34.956976028154486C19.544940637897994 38.52206460053066 15.208465324660967 40.04796928434552 11.593989489976416 38.365319133254715ZM35.23289781102595 23.828844019015328C38.13467937426297 26.531036353920992 38.24365479436911 31.048789044074294 35.4769728957842 33.91922151385614C32.71004219487028 36.79015158829599 28.11491198039505 36.926744066922176 25.21362802181604 34.22450197155071C22.311995739976414 31.522508678508256 22.202796397774176 27.004755988354955 24.96955293705778 24.134124476709907C27.7364836379717 21.263368563900357 32.331613852446935 21.12667656434257 35.23289781102595 23.828844019015328ZM0.06480230820681014 17.468560801149764C0.5977724756780661 13.557885793779482 4.251086353920991 10.791900541715801 8.224758110996463 11.290624810215212C12.198429868071933 11.789349078714622 14.987678137897996 15.363966780291864 14.454718668926887 19.274641787662148C13.921734319722878 23.18531679503243 10.26839556124705 25.951326927329013 6.294748684404482 25.452478257665096C2.321071951282429 24.953878390330193 -0.4681389981942807 21.379385089917452 0.06480230820681014 17.468560801149764ZM28.849874060288915 7.45118190964033C32.3781398879717 5.555979928876769 36.781941111438684 6.822085220739976 38.68627413767689 10.279019420695755C40.590855966244106 13.73610290204894 39.274691645784195 18.074817436247052 35.746674620430426 19.969994536777712C32.21865759507665 21.865196517541275 27.81485637160967 20.59909122567807 25.910274543042455 17.142132145489388C24.005866876105543 13.68519794553361 25.32210583726415 9.34635901017099 28.849874060288915 7.45118190964033Z" fill="#115999"></path> </svg>