<svg viewBox="0 0 130.82421875 10.82470703125" fill="none" xmlns="http://www.w3.org/2000/svg"><path d="M1.4121101259094706 9.412353142891222C7.814350290732348 9.412353142891222 7.814350290732348 1.4123523005128817 14.216622911945374 1.4123523005128817C20.618870566704437 1.4123523005128817 20.618870566704437 9.412353142891222 27.021193120825384 9.412353142891222C33.423340909768605 9.412353142891222 33.423340909768605 1.4123523005128817 39.81050882633588 1.4123523005128817C46.213155944358306 1.4123523005128817 46.213155944358306 9.412353142891222 52.600074196385975 9.412353142891222C59.0024716498688 9.412353142891222 59.0024716498688 1.4123523005128817 65.38963956643607 1.4123523005128817C71.7920370199189 1.4123523005128817 71.7920370199189 9.412353142891222 78.19393514432252 9.412353142891222C84.59633259780534 9.412353142891222 84.59633259780534 1.4123523005128817 90.99873005128816 1.4123523005128817C97.40062817569179 1.4123523005128817 97.40062817569179 9.412353142891222 103.80302562917461 9.412353142891222C110.20542308265745 9.412353142891222 110.20542308265745 1.4123523005128817 116.60782053614027 1.4123523005128817C123.0097186605439 1.4123523005128817 123.0097186605439 9.412353142891222 129.41211611402673 9.412353142891222" stroke="white" stroke-width="2.82486" stroke-miterlimit="10" stroke-linecap="round"></path></svg>