<svg xmlns="http://www.w3.org/2000/svg" viewBox="0 0 150.5 12.5" fill="none"> <path d="M1.25 1.25C8.6526 1.25 8.6526 11.25 16.0552 11.25C23.457825 11.25 23.457825 1.25 30.8605 1.25C38.263 1.25 38.263 11.25 45.64825 11.25C53.051 11.25 53.051 1.25 60.43625 1.25C67.839 1.25 67.839 11.25 75.224 11.25C82.62675 11.25 82.62675 1.25 90.029 1.25C97.43175 1.25 97.43175 11.25 104.8345 11.25C112.23675 11.25 112.23675 1.25 119.6395 1.25C127.04225 1.25 127.04225 11.25 134.445 11.25C141.84725 11.25 141.84725 1.25 149.25 1.25" stroke="#115999" stroke-width="2.5" stroke-miterlimit="10" stroke-linecap="round"></path> </svg>