<svg xmlns="http://www.w3.org/2000/svg" viewBox="0 0 149.5 12.5" fill="none"> <path d="M1.25 11.25C8.6026 11.25 8.6026 1.25 15.955175 1.25C23.307775 1.25 23.307775 11.25 30.66025 11.25C38.013 11.25 38.013 1.25 45.34825 1.25C52.701 1.25 52.701 11.25 60.03625 11.25C67.389 11.25 67.389 1.25 74.724 1.25C82.077 1.25 82.077 11.25 89.429 11.25C96.78175 11.25 96.78175 1.25 104.1345 1.25C111.48675 1.25 111.48675 11.25 118.8395 11.25C126.19225 11.25 126.19225 1.25 133.545 1.25C140.89725 1.25 140.89725 11.25 148.25 11.25" stroke="#36B872" stroke-width="2.5" stroke-miterlimit="10" stroke-linecap="round"></path> </svg>