<svg xmlns="http://www.w3.org/2000/svg" viewBox="0 0 142.373046875 11.372894287109375" fill="none"> <path d="M1.186524483792489 1.1864470528371711C8.188997923519738 1.1864470528371711 8.188997923519738 10.186441815720944 15.191453878837718 10.186441815720944C22.1939098341557 10.186441815720944 22.1939098341557 1.1864470528371711 29.196465700383772 1.1864470528371711C36.19872183388158 1.1864470528371711 36.19872183388158 10.186441815720944 43.18499222176535 10.186441815720944C50.18749813253837 10.186441815720944 50.18749813253837 1.1864470528371711 57.17351874314693 1.1864470528371711C64.17602465391995 1.1864470528371711 64.17602465391995 10.186441815720944 71.16179548725329 10.186441815720944C78.16455117530154 10.186441815720944 78.16455117530154 1.1864470528371711 85.16655753152413 1.1864470528371711C92.16931321957236 1.1864470528371711 92.16931321957236 10.186441815720944 99.1718191303454 10.186441815720944C106.17382548656798 10.186441815720944 106.17382548656798 1.1864470528371711 113.17658117461623 1.1864470528371711C120.17908708538924 1.1864470528371711 120.17908708538924 10.186441815720944 127.1818427734375 10.186441815720944C134.1838491296601 10.186441815720944 134.1838491296601 1.1864470528371711 141.18660481770834 1.1864470528371711" stroke="#7B48A3" stroke-width="2.37288" stroke-miterlimit="10" stroke-linecap="round"></path> </svg>